<svg width="62" height="46" viewBox="0 0 62 46" fill="none" xmlns="http://www.w3.org/2000/svg">
<g filter="url(#filter0_g_23_2)">
<path d="M54.7282 13.1346L54.8812 9.27029C54.9375 7.8475 53.7968 6.64737 52.3333 6.58973L37.7592 6.01577C36.2957 5.95814 35.0637 7.06482 35.0074 8.48762L34.8544 12.3519C34.7981 13.7747 35.9388 14.9748 37.4023 15.0325L51.9764 15.6064C53.4399 15.6641 54.6719 14.5574 54.7282 13.1346Z" fill="#FFF2E5"/>
<path d="M57.969 8.68302C59.413 9.72248 59.413 11.8671 57.969 12.9066L49.3762 19.0925C47.6496 20.3355 45.2375 19.1048 45.2375 16.9807V4.60894C45.2375 2.48484 47.6496 1.25409 49.3762 2.49714L57.969 8.68302Z" fill="#FFF2E5"/>
<path d="M54.0137 35.9875L53.884 32.0831C53.8363 30.6456 52.6293 29.5188 51.1882 29.5664L37.2414 30.0272C35.8003 30.0749 34.6707 31.2788 34.7185 32.7164L34.8481 36.6207C34.8958 38.0583 36.1028 39.185 37.5439 39.1374L51.4907 38.6766C52.9318 38.629 54.0614 37.425 54.0137 35.9875Z" fill="#FFF2E5"/>
<path d="M57.4472 31.9189C58.8989 32.9217 58.9333 35.0557 57.5152 36.1326L49.1115 42.5142C47.4064 43.8091 44.968 42.6418 44.9338 40.5144L44.7352 28.1903C44.7009 26.0628 47.0996 24.7707 48.8451 25.9765L57.4472 31.9189Z" fill="#FFF2E5"/>
<path d="M18.0703 13.5176C21.2028 13.5176 23.7422 11.6714 23.7422 9.39403C23.7422 7.11667 21.2028 5.27051 18.0703 5.27051L7.67185 5.27051C4.53935 5.27051 1.99997 7.11667 1.99997 9.39403C1.99997 11.6714 4.53935 13.5176 7.67185 13.5176H18.0703Z" fill="#FFF2E5"/>
<path d="M18.7248 39.0085C21.4958 39.0085 23.7422 37.1624 23.7422 34.885C23.7422 32.6076 21.4958 30.7615 18.7248 30.7615H7.0174C4.24635 30.7615 1.99997 32.6076 1.99997 34.885C1.99997 37.1624 4.24635 39.0085 7.0174 39.0085H18.7248Z" fill="#FFF2E5"/>
<path d="M33.7792 37.2329C35.2241 39.2965 38.0725 39.801 40.1412 38.3597C42.2099 36.9184 42.7157 34.0771 41.2708 32.0135L24.0153 7.36931C22.5704 5.30572 19.722 4.80126 17.6533 6.24255C15.5846 7.68384 15.0788 10.5251 16.5237 12.5887L33.7792 37.2329Z" fill="#FFF2E5"/>
<path d="M16.5911 31.291C15.1089 33.3282 15.563 36.1781 17.6052 37.6565C19.6474 39.135 22.5045 38.6821 23.9866 36.6449L40.9938 13.2691C42.4759 11.232 42.0219 8.38202 39.9797 6.90358C37.9374 5.42514 35.0804 5.87806 33.5983 7.9152L16.5911 31.291Z" fill="#FFF2E5"/>
</g>
<defs>
<filter id="filter0_g_23_2" x="0" y="0" width="61.052" height="45.0562" filterUnits="userSpaceOnUse" color-interpolation-filters="sRGB">
<feFlood flood-opacity="0" result="BackgroundImageFix"/>
<feBlend mode="normal" in="SourceGraphic" in2="BackgroundImageFix" result="shape"/>
<feTurbulence type="fractalNoise" baseFrequency="0.033333335071802139 0.033333335071802139" numOctaves="3" seed="5272" />
<feDisplacementMap in="shape" scale="4" xChannelSelector="R" yChannelSelector="G" result="displacedImage" width="100%" height="100%" />
<feMerge result="effect1_texture_23_2">
<feMergeNode in="displacedImage"/>
</feMerge>
</filter>
</defs>
</svg>
